<mxfile host="app.diagrams.net" modified="2020-10-22T03:59:13.361Z" agent="5.0 (Windows NT 6.3; Win64; x64) AppleWebKit/537.36 (KHTML, like Gecko) Chrome/86.0.4240.75 Safari/537.36" etag="gaRR5QY0K4DCOGg7E8JJ" version="13.8.1" type="github">
  <diagram id="1p1gAMOh5Jif1nPkuQzd" name="Page-1">
    <mxGraphModel dx="2042" dy="1720" grid="1" gridSize="10" guides="1" tooltips="1" connect="1" arrows="1" fold="1" page="1" pageScale="1" pageWidth="850" pageHeight="1100" math="0" shadow="0">
      <root>
        <mxCell id="0" />
        <mxCell id="1" parent="0" />
        <mxCell id="0KmZ0BlWm-D1CC5T5fqJ-1" value="TAMU" style="rounded=0;whiteSpace=wrap;html=1;" vertex="1" parent="1">
          <mxGeometry x="70" y="90" width="120" height="60" as="geometry" />
        </mxCell>
        <mxCell id="0KmZ0BlWm-D1CC5T5fqJ-2" value="FRONT OFFICE" style="rounded=0;whiteSpace=wrap;html=1;" vertex="1" parent="1">
          <mxGeometry x="450" y="90" width="120" height="60" as="geometry" />
        </mxCell>
        <mxCell id="0KmZ0BlWm-D1CC5T5fqJ-4" value="KAMAR" style="rounded=0;whiteSpace=wrap;html=1;" vertex="1" parent="1">
          <mxGeometry x="60" y="350" width="120" height="60" as="geometry" />
        </mxCell>
        <mxCell id="0KmZ0BlWm-D1CC5T5fqJ-5" value="&lt;u&gt;ID_STAFF&lt;/u&gt;" style="ellipse;whiteSpace=wrap;html=1;" vertex="1" parent="1">
          <mxGeometry x="540" y="-40" width="120" height="80" as="geometry" />
        </mxCell>
        <mxCell id="0KmZ0BlWm-D1CC5T5fqJ-6" value="NAMA_STAFF" style="ellipse;whiteSpace=wrap;html=1;" vertex="1" parent="1">
          <mxGeometry x="570" y="180" width="120" height="80" as="geometry" />
        </mxCell>
        <mxCell id="0KmZ0BlWm-D1CC5T5fqJ-7" value="ID_TAMU" style="ellipse;whiteSpace=wrap;html=1;" vertex="1" parent="1">
          <mxGeometry x="60" y="-50" width="120" height="80" as="geometry" />
        </mxCell>
        <mxCell id="0KmZ0BlWm-D1CC5T5fqJ-8" value="NAMA_TAMU" style="ellipse;whiteSpace=wrap;html=1;" vertex="1" parent="1">
          <mxGeometry x="-90" width="120" height="80" as="geometry" />
        </mxCell>
        <mxCell id="0KmZ0BlWm-D1CC5T5fqJ-9" value="NO_TELP" style="ellipse;whiteSpace=wrap;html=1;" vertex="1" parent="1">
          <mxGeometry x="230" y="-20" width="120" height="80" as="geometry" />
        </mxCell>
        <mxCell id="0KmZ0BlWm-D1CC5T5fqJ-10" value="BOOK" style="rhombus;whiteSpace=wrap;html=1;" vertex="1" parent="1">
          <mxGeometry x="270" y="80" width="80" height="80" as="geometry" />
        </mxCell>
        <mxCell id="0KmZ0BlWm-D1CC5T5fqJ-11" value="" style="endArrow=none;html=1;exitX=1;exitY=0.5;exitDx=0;exitDy=0;entryX=0;entryY=0.5;entryDx=0;entryDy=0;" edge="1" parent="1" source="0KmZ0BlWm-D1CC5T5fqJ-1" target="0KmZ0BlWm-D1CC5T5fqJ-10">
          <mxGeometry width="50" height="50" relative="1" as="geometry">
            <mxPoint x="220" y="260" as="sourcePoint" />
            <mxPoint x="270" y="210" as="targetPoint" />
          </mxGeometry>
        </mxCell>
        <mxCell id="0KmZ0BlWm-D1CC5T5fqJ-12" value="" style="endArrow=none;html=1;entryX=0;entryY=1;entryDx=0;entryDy=0;" edge="1" parent="1" target="0KmZ0BlWm-D1CC5T5fqJ-9">
          <mxGeometry width="50" height="50" relative="1" as="geometry">
            <mxPoint x="170" y="90" as="sourcePoint" />
            <mxPoint x="220" y="40" as="targetPoint" />
          </mxGeometry>
        </mxCell>
        <mxCell id="0KmZ0BlWm-D1CC5T5fqJ-14" value="" style="endArrow=none;html=1;entryX=0.5;entryY=1;entryDx=0;entryDy=0;" edge="1" parent="1" target="0KmZ0BlWm-D1CC5T5fqJ-7">
          <mxGeometry width="50" height="50" relative="1" as="geometry">
            <mxPoint x="140" y="90" as="sourcePoint" />
            <mxPoint x="190" y="40" as="targetPoint" />
          </mxGeometry>
        </mxCell>
        <mxCell id="0KmZ0BlWm-D1CC5T5fqJ-17" value="" style="endArrow=none;html=1;entryX=0;entryY=1;entryDx=0;entryDy=0;exitX=0.5;exitY=0;exitDx=0;exitDy=0;" edge="1" parent="1" source="0KmZ0BlWm-D1CC5T5fqJ-2" target="0KmZ0BlWm-D1CC5T5fqJ-5">
          <mxGeometry width="50" height="50" relative="1" as="geometry">
            <mxPoint x="462.43" y="71.72" as="sourcePoint" />
            <mxPoint x="540.0035931288096" y="30.004271247460537" as="targetPoint" />
          </mxGeometry>
        </mxCell>
        <mxCell id="0KmZ0BlWm-D1CC5T5fqJ-18" value="" style="endArrow=none;html=1;entryX=0;entryY=0.5;entryDx=0;entryDy=0;exitX=1;exitY=0.5;exitDx=0;exitDy=0;" edge="1" parent="1" source="0KmZ0BlWm-D1CC5T5fqJ-10" target="0KmZ0BlWm-D1CC5T5fqJ-2">
          <mxGeometry width="50" height="50" relative="1" as="geometry">
            <mxPoint x="342.43" y="180" as="sourcePoint" />
            <mxPoint x="420.00359312880954" y="138.28427124746054" as="targetPoint" />
          </mxGeometry>
        </mxCell>
        <mxCell id="0KmZ0BlWm-D1CC5T5fqJ-20" value="memesan" style="rhombus;whiteSpace=wrap;html=1;" vertex="1" parent="1">
          <mxGeometry x="90" y="200" width="80" height="80" as="geometry" />
        </mxCell>
        <mxCell id="0KmZ0BlWm-D1CC5T5fqJ-21" value="" style="endArrow=none;html=1;entryX=0.25;entryY=0;entryDx=0;entryDy=0;exitX=1;exitY=0.5;exitDx=0;exitDy=0;" edge="1" parent="1" source="0KmZ0BlWm-D1CC5T5fqJ-8" target="0KmZ0BlWm-D1CC5T5fqJ-1">
          <mxGeometry width="50" height="50" relative="1" as="geometry">
            <mxPoint x="40" y="80" as="sourcePoint" />
            <mxPoint x="117.57359312880953" y="38.28427124746054" as="targetPoint" />
          </mxGeometry>
        </mxCell>
        <mxCell id="0KmZ0BlWm-D1CC5T5fqJ-22" value="" style="endArrow=none;html=1;entryX=0.5;entryY=1;entryDx=0;entryDy=0;exitX=0.5;exitY=0;exitDx=0;exitDy=0;" edge="1" parent="1" source="0KmZ0BlWm-D1CC5T5fqJ-20" target="0KmZ0BlWm-D1CC5T5fqJ-1">
          <mxGeometry width="50" height="50" relative="1" as="geometry">
            <mxPoint x="50" y="221.72" as="sourcePoint" />
            <mxPoint x="127.57359312880953" y="180.00427124746054" as="targetPoint" />
          </mxGeometry>
        </mxCell>
        <mxCell id="0KmZ0BlWm-D1CC5T5fqJ-23" value="" style="endArrow=none;html=1;entryX=0.5;entryY=0;entryDx=0;entryDy=0;exitX=0.5;exitY=1;exitDx=0;exitDy=0;" edge="1" parent="1" source="0KmZ0BlWm-D1CC5T5fqJ-20" target="0KmZ0BlWm-D1CC5T5fqJ-4">
          <mxGeometry width="50" height="50" relative="1" as="geometry">
            <mxPoint x="200" y="301.72" as="sourcePoint" />
            <mxPoint x="277.57359312880953" y="260.00427124746057" as="targetPoint" />
          </mxGeometry>
        </mxCell>
        <mxCell id="0KmZ0BlWm-D1CC5T5fqJ-24" value="" style="endArrow=none;html=1;entryX=0.075;entryY=0.166;entryDx=0;entryDy=0;exitX=0.5;exitY=1;exitDx=0;exitDy=0;entryPerimeter=0;" edge="1" parent="1" source="0KmZ0BlWm-D1CC5T5fqJ-2" target="0KmZ0BlWm-D1CC5T5fqJ-6">
          <mxGeometry width="50" height="50" relative="1" as="geometry">
            <mxPoint x="390" y="231.72" as="sourcePoint" />
            <mxPoint x="467.57359312880953" y="190.00427124746054" as="targetPoint" />
          </mxGeometry>
        </mxCell>
        <mxCell id="0KmZ0BlWm-D1CC5T5fqJ-31" value="No_KAMAR" style="ellipse;whiteSpace=wrap;html=1;" vertex="1" parent="1">
          <mxGeometry x="-130" y="430" width="120" height="80" as="geometry" />
        </mxCell>
        <mxCell id="0KmZ0BlWm-D1CC5T5fqJ-32" value="FASILITAS" style="ellipse;whiteSpace=wrap;html=1;" vertex="1" parent="1">
          <mxGeometry x="80" y="490" width="120" height="80" as="geometry" />
        </mxCell>
        <mxCell id="0KmZ0BlWm-D1CC5T5fqJ-33" value="" style="endArrow=none;html=1;entryX=0.25;entryY=1;entryDx=0;entryDy=0;exitX=0.5;exitY=0;exitDx=0;exitDy=0;" edge="1" parent="1" source="0KmZ0BlWm-D1CC5T5fqJ-31" target="0KmZ0BlWm-D1CC5T5fqJ-4">
          <mxGeometry width="50" height="50" relative="1" as="geometry">
            <mxPoint x="280" y="200" as="sourcePoint" />
            <mxPoint x="357.57359312880953" y="158.28427124746054" as="targetPoint" />
          </mxGeometry>
        </mxCell>
        <mxCell id="0KmZ0BlWm-D1CC5T5fqJ-34" value="" style="endArrow=none;html=1;entryX=0.5;entryY=0;entryDx=0;entryDy=0;exitX=0.75;exitY=1;exitDx=0;exitDy=0;" edge="1" parent="1" source="0KmZ0BlWm-D1CC5T5fqJ-4" target="0KmZ0BlWm-D1CC5T5fqJ-32">
          <mxGeometry width="50" height="50" relative="1" as="geometry">
            <mxPoint x="160" y="430" as="sourcePoint" />
            <mxPoint x="237.57359312880953" y="388.28427124746054" as="targetPoint" />
          </mxGeometry>
        </mxCell>
        <mxCell id="0KmZ0BlWm-D1CC5T5fqJ-35" value="" style="rhombus;whiteSpace=wrap;html=1;" vertex="1" parent="1">
          <mxGeometry x="350" y="260" width="80" height="80" as="geometry" />
        </mxCell>
        <mxCell id="0KmZ0BlWm-D1CC5T5fqJ-36" value="" style="endArrow=none;html=1;entryX=0;entryY=1;entryDx=0;entryDy=0;exitX=0.5;exitY=0;exitDx=0;exitDy=0;" edge="1" parent="1" source="0KmZ0BlWm-D1CC5T5fqJ-35">
          <mxGeometry width="50" height="50" relative="1" as="geometry">
            <mxPoint x="425" y="191.72" as="sourcePoint" />
            <mxPoint x="502.57359312880953" y="150.00427124746054" as="targetPoint" />
          </mxGeometry>
        </mxCell>
        <mxCell id="0KmZ0BlWm-D1CC5T5fqJ-37" value="" style="endArrow=none;html=1;entryX=0.5;entryY=1;entryDx=0;entryDy=0;exitX=1;exitY=0.5;exitDx=0;exitDy=0;" edge="1" parent="1" source="0KmZ0BlWm-D1CC5T5fqJ-4" target="0KmZ0BlWm-D1CC5T5fqJ-35">
          <mxGeometry width="50" height="50" relative="1" as="geometry">
            <mxPoint x="220" y="370" as="sourcePoint" />
            <mxPoint x="387.57359312880953" y="188.28427124746054" as="targetPoint" />
          </mxGeometry>
        </mxCell>
      </root>
    </mxGraphModel>
  </diagram>
</mxfile>
